<svg xmlns="http://www.w3.org/2000/svg" width="209" height="41" viewBox="0 0 209 41" fill="none"><path d="M82.7108 17.93C81.7745 14.5239 78.9009 12.4137 75.3234 12.4137C70.9389 12.4137 67.3804 15.5766 67.3804 20.4465C67.3804 25.3202 70.8743 28.5782 75.3234 28.5782C78.2541 28.5782 81.0245 27.1981 82.3758 24.6282L79.803 23.3435C78.9467 24.7616 77.2682 25.5827 75.4528 25.5827C72.9826 25.5827 71.1368 24.3016 70.7067 21.7963H82.9695C82.9847 21.5341 83.0043 21.2831 83.0114 21.0436C83.0269 20.8272 83.0346 20.6181 83.0346 20.4164C83.0383 19.5769 82.9295 18.7407 82.7111 17.9301M70.7413 19.196C71.2018 16.63 72.983 15.4095 75.3541 15.4095C77.729 15.4095 79.476 16.7934 79.8033 19.196H70.7413Z" fill="#E5694A"></path><path d="M96.2867 13.0033C95.3856 12.5968 94.4054 12.3954 93.4168 12.4137C91.7689 12.4137 89.2949 13.269 88.4043 15.1813V12.8094L85.1764 15.7138V28.1831H88.4043V19.9221C88.4043 16.7289 90.8439 15.5769 92.8572 15.5769C93.033 15.576 93.2086 15.5887 93.3824 15.6149C95.0951 15.862 96.3473 17.3179 96.3473 19.5914V28.1831H99.5785V19.3937C99.6017 16.2346 98.4101 14.003 96.2864 13.0033" fill="#E5694A"></path><path d="M109.63 12.4137C105.25 12.4137 101.558 15.607 101.558 20.4806C101.558 25.3541 105.25 28.5781 109.63 28.5781C114.015 28.5781 117.741 25.3539 117.741 20.4806C117.741 15.6073 114.015 12.4137 109.63 12.4137ZM109.63 25.5521C106.997 25.5521 104.785 23.4761 104.785 20.4807C104.785 17.5193 106.997 15.4436 109.63 15.4436C112.268 15.4436 114.51 17.5196 114.51 20.4807C114.51 23.4764 112.268 25.5521 109.63 25.5521Z" fill="#E5694A"></path><path d="M129.935 12.8094L125.452 24.0051L120.968 12.8094H117.508L123.936 28.1832H127L133.429 12.8094H129.935Z" fill="#E5694A"></path><path d="M146.148 12.8094V15.1133C145.159 13.3683 143.05 12.4141 140.809 12.4141C136.459 12.4141 133.197 15.9041 133.197 20.481C133.197 25.2217 136.657 28.5786 140.679 28.5786C143.05 28.5786 145.159 27.3622 146.148 25.5829V28.1832H149.379V12.8094H146.148ZM141.239 25.5524C138.537 25.5524 136.459 23.2445 136.459 20.481C136.459 17.7478 138.537 15.444 141.174 15.444C143.644 15.444 146.118 17.52 146.118 20.481C146.118 23.378 143.807 25.5524 141.239 25.5524Z" fill="#E5694A"></path><path d="M159.926 25.5524C157.056 25.5524 154.784 23.412 154.784 20.481C154.784 17.55 157.056 15.444 159.926 15.444C161.475 15.444 162.826 16.0713 163.717 17.0561L165.859 15.0488C164.508 13.4366 162.366 12.4137 159.862 12.4137C155.409 12.4137 151.553 15.607 151.553 20.4806C151.553 25.3541 155.409 28.5781 159.862 28.5781C162.366 28.5781 164.509 27.5592 165.86 25.9435L163.717 23.9367C162.826 24.9252 161.475 25.5524 159.926 25.5524Z" fill="#E5694A"></path><path d="M182.183 17.9909C181.156 14.5463 178.012 12.414 174.427 12.414C170.043 12.414 166.351 15.6074 166.351 20.4809C166.351 25.3545 170.043 28.5784 174.427 28.5784C178.514 28.5784 182.028 25.7766 182.488 21.4504C182.519 21.1348 182.538 20.8118 182.538 20.4809C182.541 19.6382 182.421 18.7994 182.184 17.9909M174.427 25.5527C171.79 25.5527 169.582 23.4766 169.582 20.4813C169.582 17.5199 171.79 15.4442 174.427 15.4442C177.065 15.4442 179.307 17.5202 179.307 20.4813C179.307 20.5143 179.306 20.5473 179.303 20.5802C179.3 20.8721 179.273 21.1632 179.223 21.4507C178.801 23.9141 176.768 25.5527 174.427 25.5527Z" fill="#E5694A"></path><path d="M203.067 12.4137C201.518 12.4137 199.112 12.9763 197.795 15.6412C197.345 14.6174 196.589 13.7581 195.629 13.182C194.758 12.6681 193.763 12.4024 192.752 12.414C190.673 12.414 188.63 13.5012 187.941 15.2119V12.8131L187.492 13.216L184.71 15.7212V28.1831H187.941V19.9223C187.941 16.7935 189.985 15.5086 191.995 15.5086C192.301 15.5059 192.607 15.5495 192.9 15.6378C194.309 16.0522 195.222 17.4741 195.222 19.5573V28.1832H198.488V20.5154C198.488 17.2878 199.805 15.4782 202.343 15.5086C204.422 15.5086 205.738 17.0557 205.738 19.5573V28.1832H209V19.3937C209 15.0143 206.926 12.414 203.067 12.414" fill="#E5694A"></path><path d="M21.7145 0.5H35.9382L16.2848 18.1714C15.7191 18.68 14.985 18.9614 14.2239 18.9615H0L19.6537 1.29016C20.2193 0.781538 20.9535 0.500065 21.7145 0.5Z" fill="#003F3C"></path><path d="M40.9255 22.0385H55.1491L35.4955 39.71C34.9298 40.2185 34.1957 40.5 33.4346 40.5H19.2109L38.8646 22.8286C39.4303 22.32 40.1644 22.0385 40.9255 22.0385Z" fill="#003F3C"></path><path d="M33.7353 20.5001C33.7353 21.7172 33.374 22.907 32.697 23.919C32.02 24.931 31.0579 25.7197 29.9321 26.1855C28.8064 26.6512 27.5676 26.7731 26.3725 26.5357C25.1774 26.2982 24.0797 25.7121 23.2181 24.8515C22.3564 23.9909 21.7697 22.8944 21.532 21.7006C21.2942 20.5069 21.4162 19.2696 21.8825 18.1451C22.3488 17.0206 23.1385 16.0596 24.1516 15.3834C25.1648 14.7072 26.3559 14.3463 27.5744 14.3463C29.2084 14.3463 30.7754 14.9946 31.9308 16.1487C33.0862 17.3027 33.7353 18.868 33.7353 20.5001Z" fill="#E5694A"></path></svg>